<svg width="24" height="24" viewBox="0 0 24 24" fill="none" xmlns="http://www.w3.org/2000/svg">
<path d="M12 4C14.1736 4 14.4448 4.008 15.2976 4.048C16.1496 4.088 16.7296 4.2216 17.24 4.42C17.768 4.6232 18.2128 4.8984 18.6576 5.3424C19.0644 5.74232 19.3792 6.22607 19.58 6.76C19.7776 7.2696 19.912 7.8504 19.952 8.7024C19.9896 9.5552 20 9.8264 20 12C20 14.1736 19.992 14.4448 19.952 15.2976C19.912 16.1496 19.7776 16.7296 19.58 17.24C19.3797 17.7742 19.0649 18.2581 18.6576 18.6576C18.2576 19.0643 17.7738 19.379 17.24 19.58C16.7304 19.7776 16.1496 19.912 15.2976 19.952C14.4448 19.9896 14.1736 20 12 20C9.8264 20 9.5552 19.992 8.7024 19.952C7.8504 19.912 7.2704 19.7776 6.76 19.58C6.22586 19.3796 5.74202 19.0648 5.3424 18.6576C4.93553 18.2577 4.62075 17.774 4.42 17.24C4.2216 16.7304 4.088 16.1496 4.048 15.2976C4.0104 14.4448 4 14.1736 4 12C4 9.8264 4.008 9.5552 4.048 8.7024C4.088 7.8496 4.2216 7.2704 4.42 6.76C4.62019 6.22574 4.93504 5.74186 5.3424 5.3424C5.74214 4.93538 6.22594 4.62058 6.76 4.42C7.2704 4.2216 7.8496 4.088 8.7024 4.048C9.5552 4.0104 9.8264 4 12 4ZM12 8C10.9391 8 9.92172 8.42143 9.17157 9.17157C8.42143 9.92172 8 10.9391 8 12C8 13.0609 8.42143 14.0783 9.17157 14.8284C9.92172 15.5786 10.9391 16 12 16C13.0609 16 14.0783 15.5786 14.8284 14.8284C15.5786 14.0783 16 13.0609 16 12C16 10.9391 15.5786 9.92172 14.8284 9.17157C14.0783 8.42143 13.0609 8 12 8V8ZM17.2 7.8C17.2 7.53478 17.0946 7.28043 16.9071 7.09289C16.7196 6.90536 16.4652 6.8 16.2 6.8C15.9348 6.8 15.6804 6.90536 15.4929 7.09289C15.3054 7.28043 15.2 7.53478 15.2 7.8C15.2 8.06522 15.3054 8.31957 15.4929 8.50711C15.6804 8.69464 15.9348 8.8 16.2 8.8C16.4652 8.8 16.7196 8.69464 16.9071 8.50711C17.0946 8.31957 17.2 8.06522 17.2 7.8ZM12 9.6C12.6365 9.6 13.247 9.85286 13.6971 10.3029C14.1471 10.753 14.4 11.3635 14.4 12C14.4 12.6365 14.1471 13.247 13.6971 13.6971C13.247 14.1471 12.6365 14.4 12 14.4C11.3635 14.4 10.753 14.1471 10.3029 13.6971C9.85286 13.247 9.6 12.6365 9.6 12C9.6 11.3635 9.85286 10.753 10.3029 10.3029C10.753 9.85286 11.3635 9.6 12 9.6V9.6Z" fill="white"/>
</svg>
