<svg width="24" height="24" viewBox="0 0 24 24" fill="none" xmlns="http://www.w3.org/2000/svg">
<path d="M18.9993 7.42453C18.475 7.66904 17.9189 7.82962 17.3496 7.90096C17.9497 7.52259 18.3988 6.92712 18.6133 6.22551C18.0501 6.57884 17.4327 6.82647 16.7891 6.96042C16.3569 6.47283 15.7839 6.14945 15.1593 6.04057C14.5347 5.93169 13.8935 6.0434 13.3353 6.35833C12.7772 6.67327 12.3334 7.17378 12.0729 7.78206C11.8124 8.39034 11.7498 9.07231 11.8949 9.72194C10.7528 9.66159 9.63553 9.34871 8.61558 8.8036C7.59563 8.25849 6.69583 7.49335 5.97459 6.55784C5.71929 7.02011 5.58513 7.54561 5.58585 8.08052C5.58585 9.13039 6.09272 10.0579 6.86332 10.6009C6.40729 10.5858 5.96129 10.456 5.5625 10.2223V10.2599C5.56264 10.9591 5.79215 11.6368 6.21212 12.178C6.63209 12.7191 7.21668 13.0906 7.86676 13.2292C7.44342 13.3502 6.99952 13.368 6.56868 13.2814C6.75197 13.8832 7.10921 14.4096 7.59038 14.7867C8.07155 15.1639 8.65256 15.373 9.25206 15.3847C8.65624 15.878 7.97402 16.2427 7.24442 16.4579C6.51482 16.6731 5.75215 16.7345 5 16.6388C6.31298 17.529 7.84141 18.0015 9.40247 18C14.6861 18 17.5756 13.3856 17.5756 9.38381C17.5756 9.25348 17.5721 9.1217 17.5666 8.99282C18.129 8.56431 18.6144 8.03347 19 7.42526L18.9993 7.42453Z" fill="white"/>
</svg>
