<svg width="28" height="25" viewBox="0 0 28 25" fill="none" xmlns="http://www.w3.org/2000/svg">
<path d="M20.2449 0C24.2129 0 27.4286 3.33333 27.4286 8C27.4286 17.3333 17.6327 22.6667 14.3674 24.6667C11.7852 23.0853 5.11609 19.4173 2.44115 13.3347L0 13.3333V10.6667H1.58041C1.40278 9.81867 1.30613 8.93067 1.30613 8C1.30613 3.33333 4.57144 0 8.48981 0C10.9192 0 13.0613 1.33333 14.3674 2.66667C15.6735 1.33333 17.8155 0 20.2449 0ZM20.2449 2.66667C18.8395 2.66667 17.3192 3.42667 16.2142 4.552L14.3674 6.43733L12.5205 4.552C11.4155 3.42667 9.8952 2.66667 8.48981 2.66667C5.95593 2.66667 3.91838 4.87467 3.91838 8C3.91838 8.91333 4.03593 9.80267 4.26711 10.6667H7.09748L9.79594 6.07467L13.7143 12.7413L14.9342 10.6667H20.898V13.3333H16.4128L13.7143 17.9253L9.79594 11.2587L8.57602 13.3333H5.36556C6.3974 15.1653 7.95822 16.8907 9.98533 18.5373C10.9584 19.3267 11.9968 20.064 13.1475 20.804C13.538 21.056 13.9246 21.2973 14.3674 21.5667C14.8102 21.2973 15.1968 21.056 15.5873 20.8053C16.738 20.064 17.7764 19.3267 18.7481 18.5373C22.6417 15.3773 24.8164 11.924 24.8164 8C24.8164 4.85333 22.8089 2.66667 20.2449 2.66667Z" fill="#3EE09A"/>
</svg>
