<svg width="48" height="48" viewBox="0 0 48 48" fill="none" xmlns="http://www.w3.org/2000/svg">
<path d="M24 48C10.7448 48 0 37.2552 0 24C0 10.7448 10.7448 0 24 0C37.2552 0 48 10.7448 48 24C48 37.2552 37.2552 48 24 48ZM20.6928 15.396C20.5484 15.2996 20.3805 15.2442 20.2071 15.2357C20.0336 15.2272 19.8611 15.2659 19.708 15.3477C19.5548 15.4294 19.4266 15.5512 19.3372 15.7C19.2477 15.8489 19.2003 16.0192 19.2 16.1928V31.8072C19.2003 31.9808 19.2477 32.1511 19.3372 32.3C19.4266 32.4488 19.5548 32.5706 19.708 32.6523C19.8611 32.7341 20.0336 32.7728 20.2071 32.7643C20.3805 32.7558 20.5484 32.7004 20.6928 32.604L32.4024 24.7992C32.5341 24.7116 32.6421 24.5928 32.7168 24.4533C32.7915 24.3139 32.8305 24.1582 32.8305 24C32.8305 23.8418 32.7915 23.6861 32.7168 23.5467C32.6421 23.4072 32.5341 23.2884 32.4024 23.2008L20.6904 15.396H20.6928Z" fill="#0E1681"/>
</svg>
