<svg width="24" height="24" viewBox="0 0 24 24" fill="none" xmlns="http://www.w3.org/2000/svg">
<path d="M6.43725 15.9907C5.66475 15.1702 5.25 14.2499 5.25 12.7582C5.25 10.1332 7.09275 7.78044 9.7725 6.61719L10.4423 7.65069C7.941 9.00369 7.452 10.7594 7.257 11.8664C7.65975 11.6579 8.187 11.5852 8.70375 11.6332C10.0567 11.7584 11.1233 12.8692 11.1233 14.2499C11.1233 14.9461 10.8467 15.6138 10.3544 16.1061C9.86212 16.5984 9.19444 16.8749 8.49825 16.8749C7.6935 16.8749 6.924 16.5074 6.43725 15.9907ZM13.9373 15.9907C13.1648 15.1702 12.75 14.2499 12.75 12.7582C12.75 10.1332 14.5928 7.78044 17.2725 6.61719L17.9423 7.65069C15.441 9.00369 14.952 10.7594 14.757 11.8664C15.1597 11.6579 15.687 11.5852 16.2037 11.6332C17.5567 11.7584 18.6232 12.8692 18.6232 14.2499C18.6233 14.9461 18.3467 15.6138 17.8544 16.1061C17.3621 16.5984 16.6944 16.8749 15.9982 16.8749C15.1935 16.8749 14.424 16.5074 13.9373 15.9907Z" fill="#020E26"/>
</svg>
