<svg width="32" height="32" viewBox="0 0 32 32" fill="none" xmlns="http://www.w3.org/2000/svg">
<path d="M6.57234 25.4281C5.33238 24.1913 4.34905 22.7218 3.67884 21.1038C3.00864 19.4858 2.66477 17.7514 2.667 16.0001C2.667 8.63608 8.63633 2.66675 16.0003 2.66675C23.3643 2.66675 29.3337 8.63608 29.3337 16.0001C29.3337 23.3641 23.3643 29.3334 16.0003 29.3334H2.667L6.57234 25.4281ZM10.667 17.3334C10.667 18.7479 11.2289 20.1045 12.2291 21.1047C13.2293 22.1048 14.5858 22.6667 16.0003 22.6667C17.4148 22.6667 18.7714 22.1048 19.7716 21.1047C20.7718 20.1045 21.3337 18.7479 21.3337 17.3334H10.667Z" fill="#0E1681"/>
</svg>
