<svg width="64" height="64" viewBox="0 0 64 64" fill="none" xmlns="http://www.w3.org/2000/svg">
<path d="M36.1838 9.71842C36.8991 9.2748 37.517 8.8918 38.732 8.56055C39.6368 8.2954 40.5845 8.20884 41.5224 8.30567C40.3189 7.58605 38.7379 7.45005 36.9018 7.95005C35.6868 8.2813 35.0689 8.66442 34.3534 9.10805C33.8991 9.40002 33.4279 9.6649 32.9424 9.9013C33.5595 10.1788 34.2133 10.366 34.8838 10.4569C35.3297 10.2336 35.7636 9.98713 36.1838 9.71842Z" fill="#EDEEFD"/>
<path d="M37.6392 28.085C37.3892 25.129 36.6267 22.8376 35.3735 21.2744C35.2043 21.0642 34.9898 20.8949 34.7461 20.7792C34.5023 20.6635 34.2355 20.6044 33.9657 20.6062C33.8214 20.6063 33.6775 20.6233 33.5371 20.657C33.5391 20.6595 33.5412 20.6617 33.5432 20.6642C34.7961 22.2275 35.5584 24.5189 35.809 27.4749C35.9234 28.792 35.9247 30.1164 35.8129 31.4337C35.8117 31.4439 35.8104 31.4539 35.8084 31.4639C35.7888 31.5598 35.7956 31.6592 35.8279 31.7516C35.8603 31.844 35.917 31.9259 35.9921 31.9887C36.0672 32.0515 36.1579 32.0927 36.2546 32.1082C36.3513 32.1236 36.4503 32.1126 36.5412 32.0764C36.6231 32.0544 36.7003 32.0178 36.7691 31.9684C37.1469 31.5699 37.4667 31.1202 37.7191 30.6325C37.7368 29.7825 37.7101 28.9322 37.6392 28.085Z" fill="#EDEEFD"/>
<path d="M28.42 31.434C28.42 31.4271 28.417 31.4045 28.4136 31.368C27.2117 29.2055 26.9408 26.0321 27.135 23.493C27.1517 23.274 27.1688 23.0705 27.185 22.8805C27.2877 21.659 27.3497 20.9217 26.9366 20.2542C26.539 19.6119 25.7283 19.1067 24.1723 18.283C23.3146 17.8289 22.6598 16.9177 22.328 15.7174C22.0024 14.4952 22.0303 13.2057 22.4085 11.9987C22.7868 10.8152 23.4826 9.86236 24.421 9.24311C25.5166 8.51998 26.9011 8.26323 28.5364 8.48061C28.5942 8.48823 28.6526 8.49773 28.7115 8.50811C28.0291 8.20049 27.3332 7.95361 26.7062 7.87061C25.0708 7.65374 23.6863 7.91036 22.5907 8.63311C21.6532 9.25236 20.9568 10.2052 20.5782 11.3889C20.2 12.5958 20.1721 13.8852 20.4977 15.1074C20.8293 16.3074 21.4843 17.2189 22.3421 17.673C23.8981 18.4967 24.7086 19.0019 25.1062 19.6442C25.5195 20.3117 25.4575 21.049 25.3547 22.2705C25.3387 22.4605 25.3216 22.664 25.3047 22.883C25.0698 25.9545 25.5138 29.9545 27.4642 31.9697C27.533 32.0188 27.6099 32.0552 27.6915 32.0772C27.822 32.1257 27.966 32.1235 28.095 32.0711C28.224 32.0187 28.3287 31.9199 28.3885 31.7941C28.4333 31.6903 28.4458 31.5755 28.4244 31.4645C28.4226 31.454 28.4211 31.444 28.42 31.434Z" fill="#EDEEFD"/>
<path d="M61.3926 37.6268C60.7478 36.5523 59.7132 35.768 58.5044 35.4373C57.2957 35.1067 56.0059 35.2551 54.9039 35.8518L54.5883 36.022C53.3699 34.5335 51.2498 33.9549 49.636 34.772L49.6193 34.7808L48.8935 35.1718C48.0425 34.448 46.9886 34.0049 45.8761 33.9032C44.7636 33.8014 43.6468 34.0459 42.6786 34.6033L38.8196 36.7016H33.6851C32.5719 36.7002 31.4732 36.4485 30.4704 35.9651L29.7646 35.625C27.7584 34.6488 25.5212 34.2469 23.3007 34.4638C21.0801 34.6806 18.9629 35.5078 17.1835 36.8536C17.1671 36.8661 17.1511 36.8786 17.1359 36.8928L15.432 38.4094C14.782 38.9867 14.013 39.4139 13.1795 39.6608L12.2065 36.4696C12.1596 36.3159 12.0646 36.1813 11.9355 36.0857C11.8063 35.99 11.6499 35.9384 11.4891 35.9384H3.25001C3.14386 35.9384 3.03891 35.9609 2.94212 36.0045C2.84532 36.0481 2.75888 36.1117 2.6885 36.1912C2.61813 36.2706 2.56543 36.3642 2.53388 36.4655C2.50234 36.5669 2.49267 36.6738 2.50551 36.7791L5.25189 59.299C5.27408 59.4808 5.36205 59.6483 5.49921 59.7697C5.63636 59.8911 5.81321 59.9581 5.99639 59.9581H18.3551C18.4723 59.9581 18.5879 59.9307 18.6926 59.8779C18.7973 59.8252 18.8881 59.7487 18.9579 59.6545C19.0276 59.5603 19.0743 59.4511 19.0942 59.3356C19.1141 59.2201 19.1067 59.1015 19.0725 58.9894L17.4445 53.65L22.5125 50.4454C23.1931 50.0692 23.9913 49.9659 24.7453 50.1564C24.7608 50.1603 24.7764 50.1638 24.792 50.1665L35.0778 52.0606C37.8695 52.56 40.7477 52.1536 43.292 50.9009C43.3239 50.8852 43.3545 50.8672 43.3838 50.847L61.175 38.6319C61.3325 38.5236 61.4428 38.3593 61.4832 38.1725C61.5237 37.9857 61.4913 37.7905 61.3926 37.6268ZM50.3218 36.1069C51.2218 35.6555 52.4363 35.9623 53.2308 36.7549L46.4558 40.4098L46.0419 40.628C45.8266 40.0098 45.5088 39.4322 45.1016 38.9195L50.3218 36.1069ZM43.4038 35.9171L43.4216 35.9071C44.0327 35.554 44.7279 35.3725 45.4337 35.3819C46.1394 35.3913 46.8295 35.5912 47.431 35.9605L43.9668 37.8271C43.3005 37.3385 42.5377 36.9976 41.7293 36.8271L43.4038 35.9171ZM6.66039 58.4581L4.09701 37.4375H10.9338L17.3424 58.4578L6.66039 58.4581ZM42.5795 49.5799C40.336 50.672 37.8037 51.024 35.3474 50.5851L25.0863 48.6955C23.9618 48.4177 22.7737 48.5786 21.7636 49.1455C21.752 49.1521 21.7404 49.1589 21.729 49.1661L16.9915 52.1615L13.6183 41.0976C14.6592 40.7868 15.6193 40.2514 16.4308 39.5291L18.111 38.0334C19.6697 36.8613 21.5217 36.1422 23.4629 35.9554C25.4042 35.7686 27.3593 36.1214 29.1129 36.9748L29.8184 37.316C31.025 37.8976 32.3469 38.2005 33.6864 38.2023H40.5291C41.5425 38.2037 42.5236 38.5593 43.3025 39.2076C44.0815 39.8558 44.6093 40.756 44.7948 41.7523L39.8138 41.5273C38.0119 41.4462 36.2064 41.5296 34.4196 41.7764C34.2226 41.8036 34.0445 41.908 33.9244 42.0666C33.8043 42.2252 33.7522 42.425 33.7795 42.6221C33.8067 42.8191 33.9111 42.9973 34.0697 43.1173C34.2283 43.2374 34.4281 43.2895 34.6251 43.2623C36.3213 43.0279 38.0353 42.9487 39.7459 43.0258L45.5824 43.2899C45.5938 43.2899 45.6051 43.2906 45.6164 43.2906C45.8153 43.2906 46.0061 43.2116 46.1467 43.071C46.2874 42.9303 46.3664 42.7396 46.3664 42.5406C46.3664 42.4131 46.3608 42.2869 46.3528 42.1613L47.1629 41.734L55.6176 37.173C56.2734 36.818 57.0284 36.6906 57.7643 36.8108C58.5002 36.931 59.1755 37.292 59.6841 37.8373L42.5795 49.5799Z" fill="#0E1681"/>
<path d="M9.13086 55.2679C9.13086 55.7421 9.27149 56.2057 9.53497 56.6001C9.79846 56.9944 10.173 57.3017 10.6111 57.4832C11.0493 57.6647 11.5314 57.7122 11.9965 57.6197C12.4617 57.5272 12.8889 57.2988 13.2243 56.9634C13.5596 56.6281 13.788 56.2008 13.8805 55.7357C13.9731 55.2705 13.9256 54.7884 13.7441 54.3502C13.5626 53.9121 13.2553 53.5376 12.8609 53.2741C12.4666 53.0106 12.003 52.87 11.5287 52.87C10.893 52.8706 10.2834 53.1234 9.8338 53.5729C9.38424 54.0225 9.13142 54.6321 9.13086 55.2679ZM11.5287 54.37C11.7063 54.37 11.8799 54.4227 12.0276 54.5213C12.1752 54.62 12.2903 54.7602 12.3583 54.9243C12.4262 55.0883 12.444 55.2689 12.4094 55.443C12.3747 55.6172 12.2892 55.7772 12.1636 55.9028C12.0381 56.0283 11.8781 56.1139 11.7039 56.1485C11.5297 56.1831 11.3492 56.1654 11.1851 56.0974C11.0211 56.0295 10.8808 55.9144 10.7822 55.7667C10.6835 55.6191 10.6309 55.4455 10.6309 55.2679C10.6311 55.0298 10.7258 54.8016 10.8941 54.6332C11.0624 54.4649 11.2907 54.3702 11.5287 54.37Z" fill="#0E1681"/>
<path d="M21.8488 18.6728C23.1452 19.3592 23.8961 19.809 24.1503 20.2199C24.3561 20.5522 24.3243 21.0463 24.2329 22.1324C24.2169 22.3224 24.1999 22.526 24.1829 22.7449C24.0415 24.488 24.1354 26.2422 24.4619 27.9603C24.8633 29.949 25.5902 31.4978 26.6222 32.5648C26.8093 32.743 27.0358 32.8745 27.2833 32.9487C27.4597 33.0094 27.645 33.0404 27.8316 33.0404C28.0718 33.0433 28.3098 32.9934 28.5286 32.8941C28.7475 32.7948 28.9417 32.6486 29.0977 32.4658C29.2537 32.283 29.3676 32.0681 29.4313 31.8364C29.495 31.6047 29.507 31.3619 29.4663 31.125C29.4261 30.6932 28.9038 24.5052 31.5108 21.3319C31.5752 21.2569 31.6551 21.1967 31.745 21.1556C31.8349 21.1145 31.9327 21.0935 32.0316 21.0939C32.1305 21.0944 32.2281 21.1163 32.3176 21.1582C32.4071 21.2002 32.4865 21.261 32.5502 21.3367C35.1104 24.531 34.5928 30.6948 34.5531 31.1252C34.5047 31.4089 34.5317 31.7004 34.6313 31.9705C34.7308 32.2406 34.8995 32.4799 35.1204 32.6644C35.3413 32.8489 35.6068 32.9723 35.8903 33.0221C36.1738 33.072 36.4654 33.0466 36.7361 32.9485C36.9834 32.8744 37.2098 32.7429 37.3968 32.5648C38.4289 31.4983 39.1557 29.9492 39.5571 27.9603C39.8836 26.2422 39.9775 24.488 39.8362 22.7449C39.8197 22.527 39.8026 22.3243 39.7862 22.1352C39.6948 21.0485 39.6632 20.5542 39.8688 20.2219C40.1228 19.8117 40.8738 19.3608 42.1706 18.6719C44.5228 17.4235 45.4916 13.5644 44.2439 10.4134C43.0108 7.29855 40.0922 6.0338 36.4373 7.03005C35.0829 7.39917 34.3446 7.85705 33.6304 8.2998C33.1078 8.6393 32.5582 8.93554 31.9873 9.18555C31.8471 9.1068 31.6873 9.01455 31.5157 8.9153C30.2878 8.20617 28.4323 7.13467 26.8194 6.9208C21.5711 6.22455 19.9444 9.9853 19.5711 11.1543C18.6192 14.1312 19.6411 17.504 21.8488 18.6728ZM20.9998 11.611C21.7694 9.20355 23.8191 8.03605 26.6222 8.4078C27.9401 8.5828 29.6403 9.56455 30.7656 10.2143C31.1163 10.4168 31.4193 10.5917 31.6501 10.7065C32.7626 11.2602 34.4386 11.9577 36.1237 11.629C36.2204 11.6102 36.3124 11.5724 36.3944 11.518C36.4765 11.4636 36.5471 11.3935 36.6021 11.3118C36.6571 11.2301 36.6955 11.1384 36.715 11.0418C36.7346 10.9453 36.7349 10.8458 36.7161 10.7492C36.6972 10.6525 36.6594 10.5605 36.605 10.4784C36.5506 10.3963 36.4805 10.3258 36.3988 10.2708C36.3171 10.2157 36.2254 10.1774 36.1288 10.1578C36.0323 10.1383 35.9329 10.1379 35.8362 10.1568C35.2348 10.2742 34.5612 10.2138 33.7728 9.96592C34.0078 9.8308 34.2196 9.69942 34.4208 9.57467C35.1007 9.15305 35.6879 8.78905 36.8317 8.47717C40.7841 7.39967 42.2988 9.57417 42.8501 10.9662C43.8001 13.365 43.1283 16.4662 41.4681 17.3475C39.8374 18.2132 39.0354 18.7195 38.5942 19.4324C38.1192 20.2 38.1879 21.0199 38.2922 22.2607C38.3078 22.4464 38.3246 22.6454 38.3409 22.8593C38.5648 25.7878 38.1579 29.5835 36.3501 31.4893C36.3169 31.505 36.2828 31.5187 36.2479 31.5303C36.2116 31.545 36.1713 31.5464 36.134 31.5343C36.0968 31.5222 36.065 31.4974 36.0442 31.4642C36.0306 31.4333 36.027 31.399 36.0339 31.366C36.0377 31.3457 36.0407 31.325 36.0429 31.3044C36.0731 31.0152 36.7486 24.1763 33.7211 20.3987C33.5178 20.1488 33.2617 19.9471 32.9712 19.808C32.6808 19.6688 32.3631 19.5957 32.041 19.5939C31.7189 19.5921 31.4005 19.6617 31.1084 19.7975C30.8164 19.9334 30.5581 20.1323 30.3521 20.3798C27.2634 24.1393 27.9464 31.014 27.9771 31.3048C27.9792 31.3254 27.9822 31.3458 27.9861 31.366C27.9928 31.399 27.9892 31.4332 27.9758 31.464C27.955 31.4972 27.9232 31.522 27.8859 31.5341C27.8487 31.5462 27.8084 31.5449 27.7721 31.5303C27.7371 31.5187 27.703 31.505 27.6697 31.4893C25.8618 29.5834 25.4551 25.7878 25.6791 22.8593C25.6954 22.6444 25.7122 22.4445 25.7279 22.258C25.8323 21.0175 25.9012 20.198 25.4261 19.4304C24.9839 18.7162 24.1818 18.2105 22.5511 17.3472C20.9816 16.5164 20.2712 13.8895 20.9998 11.611Z" fill="#3EE09A"/>
<path d="M56.8198 13.2988C56.8198 13.0999 56.7408 12.9092 56.6001 12.7685C56.4594 12.6278 56.2687 12.5488 56.0698 12.5488H51.7021C51.5032 12.5488 51.3125 12.6278 51.1718 12.7685C51.0312 12.9092 50.9521 13.0999 50.9521 13.2988C50.9521 13.4977 51.0312 13.6885 51.1718 13.8292C51.3125 13.9698 51.5032 14.0488 51.7021 14.0488H56.0698C56.2687 14.0488 56.4594 13.9698 56.6001 13.8292C56.7408 13.6885 56.8198 13.4977 56.8198 13.2988Z" fill="#3EE09A"/>
<path d="M50.0667 8.81379C50.2287 8.81381 50.3863 8.76117 50.5158 8.66379L54.8832 5.39179C54.9644 5.33368 55.0333 5.25992 55.0856 5.17484C55.138 5.08976 55.1728 4.99507 55.1881 4.89634C55.2033 4.79762 55.1987 4.69683 55.1745 4.59991C55.1503 4.50299 55.107 4.41188 55.047 4.33194C54.9871 4.252 54.9118 4.18483 54.8256 4.13438C54.7394 4.08394 54.6439 4.05122 54.5449 4.03817C54.4458 4.02511 54.3452 4.03198 54.2488 4.05836C54.1525 4.08474 54.0624 4.13011 53.9838 4.19179L49.6164 7.46354C49.4905 7.55799 49.3975 7.68967 49.3505 7.83992C49.3036 7.99017 49.3051 8.15138 49.3549 8.30071C49.4047 8.45005 49.5002 8.57994 49.6279 8.67198C49.7556 8.76402 49.909 8.81354 50.0664 8.81354L50.0667 8.81379Z" fill="#3EE09A"/>
<path d="M49.6165 19.1342L53.9839 22.4061C54.1433 22.5201 54.341 22.5672 54.5347 22.5372C54.7284 22.5073 54.9027 22.4027 55.0203 22.2458C55.1378 22.089 55.1893 21.8924 55.1637 21.698C55.1381 21.5037 55.0374 21.3271 54.8832 21.2061L50.5158 17.9342C50.4373 17.8725 50.3471 17.8272 50.2508 17.8008C50.1544 17.7744 50.0538 17.7675 49.9547 17.7806C49.8557 17.7937 49.7602 17.8264 49.674 17.8768C49.5878 17.9273 49.5125 17.9944 49.4526 18.0744C49.3927 18.1543 49.3493 18.2454 49.3251 18.3423C49.3009 18.4393 49.2963 18.54 49.3115 18.6388C49.3268 18.7375 49.3616 18.8322 49.414 18.9173C49.4664 19.0023 49.5352 19.0761 49.6165 19.1342Z" fill="#3EE09A"/>
<path d="M13.0473 13.2988C13.0473 13.0999 12.9683 12.9092 12.8276 12.7685C12.687 12.6278 12.4962 12.5488 12.2973 12.5488H7.92969C7.73078 12.5488 7.54001 12.6278 7.39936 12.7685C7.25871 12.9092 7.17969 13.0999 7.17969 13.2988C7.17969 13.4977 7.25871 13.6885 7.39936 13.8292C7.54001 13.9698 7.73078 14.0488 7.92969 14.0488H12.2973C12.4962 14.0488 12.687 13.9698 12.8276 13.8292C12.9683 13.6885 13.0473 13.4977 13.0473 13.2988Z" fill="#3EE09A"/>
<path d="M14.5334 18.0843C14.4743 18.0055 14.4003 17.9391 14.3156 17.8888C14.2309 17.8386 14.1371 17.8055 14.0396 17.7915C13.9421 17.7775 13.8428 17.7829 13.7473 17.8073C13.6519 17.8317 13.5622 17.8746 13.4834 17.9337L9.116 21.2056C8.96182 21.3266 8.86115 21.5032 8.83554 21.6975C8.80992 21.8918 8.8614 22.0885 8.97895 22.2453C9.09651 22.4022 9.27079 22.5068 9.4645 22.5367C9.6582 22.5667 9.85594 22.5196 10.0154 22.4056L14.3828 19.1337C14.5418 19.0145 14.647 18.837 14.6752 18.6402C14.7035 18.4434 14.6525 18.2435 14.5334 18.0843Z" fill="#3EE09A"/>
<path d="M9.11646 5.39205L13.4838 8.66405C13.5626 8.72314 13.6523 8.76614 13.7477 8.79058C13.8431 8.81503 13.9424 8.82044 14.0399 8.80651C14.1374 8.79258 14.2312 8.75958 14.316 8.7094C14.4007 8.65922 14.4747 8.59284 14.5338 8.51405C14.5929 8.43525 14.6359 8.34559 14.6604 8.25018C14.6848 8.15477 14.6902 8.05548 14.6763 7.95798C14.6624 7.86048 14.6294 7.76668 14.5792 7.68193C14.529 7.59718 14.4626 7.52314 14.3838 7.46405L10.0158 4.19167C9.93726 4.12999 9.84714 4.08462 9.75079 4.05824C9.65443 4.03186 9.55377 4.02499 9.45473 4.03805C9.35568 4.0511 9.26024 4.08381 9.17401 4.13426C9.08778 4.18471 9.0125 4.25187 8.95259 4.33182C8.89267 4.41176 8.84933 4.50286 8.82511 4.59979C8.80089 4.69671 8.79628 4.79749 8.81154 4.89622C8.82681 4.99495 8.86165 5.08964 8.91401 5.17472C8.96637 5.2598 9.0352 5.33356 9.11646 5.39167V5.39205Z" fill="#3EE09A"/>
</svg>
