<svg width="64" height="64" viewBox="0 0 64 64" fill="none" xmlns="http://www.w3.org/2000/svg">
<path d="M41.5142 15.105C42.8357 14.2856 43.9767 13.578 46.2211 12.9663C48.0961 12.455 49.8263 12.3049 51.3751 12.4954C49.1522 11.1663 46.2327 10.9145 42.8405 11.8394C40.5963 12.4511 39.4551 13.1588 38.1336 13.9781C37.2945 14.5175 36.4242 15.0067 35.5273 15.4434C36.8523 16.0083 38.0343 16.3464 39.1132 16.4698C39.9368 16.0571 40.7383 15.6015 41.5142 15.105Z" fill="#EDEEFD"/>
<path d="M44.2044 49.029C43.7419 43.5693 42.3337 39.3369 40.0196 36.4494C39.707 36.0613 39.3109 35.7487 38.8607 35.5351C38.4105 35.3214 37.9179 35.2122 37.4196 35.2155C37.1529 35.2157 36.8872 35.2471 36.6279 35.3092C36.6317 35.3138 36.6357 35.318 36.6393 35.3227C38.9534 38.2102 40.3614 42.4424 40.8242 47.9022C41.0358 50.335 41.0382 52.7815 40.8313 55.2147C40.8294 55.2333 40.8267 55.2522 40.8232 55.2703C40.787 55.4475 40.7994 55.6312 40.8591 55.8019C40.9188 55.9726 41.0236 56.124 41.1624 56.24C41.3011 56.356 41.4687 56.4323 41.6473 56.4608C41.8258 56.4894 42.0088 56.469 42.1768 56.402C42.3279 56.3615 42.4705 56.294 42.5976 56.2027C43.2954 55.4667 43.8859 54.636 44.3518 53.7352C44.3846 52.165 44.3354 50.5941 44.2044 49.029Z" fill="#EDEEFD"/>
<path d="M27.1752 55.215C27.1738 55.2025 27.1696 55.1604 27.1633 55.093C24.9433 51.0989 24.443 45.2374 24.8017 40.5465C24.8326 40.142 24.8642 39.7661 24.8937 39.4151C25.0835 37.159 25.1981 35.7973 24.4348 34.5644C23.7005 33.3779 22.2033 32.4449 19.3293 30.9234C17.7448 30.0846 16.5351 28.4015 15.9226 26.1845C15.3212 23.9271 15.3728 21.5453 16.0713 19.316C16.7702 17.13 18.0553 15.3699 19.788 14.2261C21.8116 12.8905 24.369 12.4164 27.3896 12.817C27.4962 12.8311 27.6042 12.8488 27.7127 12.8679C26.4525 12.2996 25.167 11.8438 24.009 11.6901C20.9883 11.2901 18.431 11.7636 16.4073 13.0993C14.6747 14.243 13.3896 16.0031 12.6907 18.1891C11.9922 20.4184 11.9406 22.8002 12.542 25.0576C13.1545 27.2746 14.3642 28.9576 15.9487 29.7965C18.8227 31.318 20.3198 32.251 21.0542 33.4375C21.8175 34.6704 21.7028 36.0321 21.5131 38.2883C21.4836 38.6393 21.452 39.0151 21.4211 39.4196C20.9873 45.0928 21.8073 52.4811 25.4098 56.2034C25.5368 56.294 25.679 56.3612 25.8296 56.4018C26.0707 56.4914 26.3367 56.4874 26.575 56.3906C26.8133 56.2938 27.0067 56.1112 27.1171 55.8789C27.1999 55.6873 27.2231 55.4751 27.1836 55.2701C27.1793 55.2519 27.1767 55.2335 27.1752 55.215Z" fill="#EDEEFD"/>
<path d="M15.4214 31.0784C18.0035 32.4454 19.4165 33.3041 19.9735 34.2034C20.4875 35.0339 20.3936 36.1503 20.2235 38.1768C20.1937 38.5305 20.1619 38.9094 20.1307 39.317C19.8789 42.6096 20.0604 46.0089 20.6415 48.8886C21.3665 52.4828 22.6682 55.2698 24.5097 57.1725C24.8785 57.5498 25.3584 57.7991 25.8791 57.8839C26.3998 57.9688 26.934 57.8848 27.4035 57.6442C27.873 57.4036 28.2532 57.019 28.4884 56.5468C28.7236 56.0746 28.8015 55.5395 28.7107 55.0198C28.6491 54.3806 27.5817 42.4129 32.6761 36.2118C32.858 35.9964 33.085 35.8236 33.341 35.7056C33.597 35.5875 33.8757 35.527 34.1576 35.5285C34.4395 35.5299 34.7177 35.5931 34.9725 35.7137C35.2272 35.8343 35.4525 36.0094 35.6322 36.2265C40.6261 42.4578 39.5755 54.3794 39.5145 55.0203C39.4507 55.3706 39.4653 55.7308 39.5572 56.0748C39.6491 56.4189 39.8161 56.7383 40.0462 57.0101C40.2762 57.282 40.5636 57.4995 40.8877 57.6471C41.2118 57.7947 41.5645 57.8687 41.9206 57.8638C42.1982 57.8638 42.4738 57.8176 42.7362 57.727C43.1013 57.6208 43.4367 57.4309 43.7156 57.1725C45.557 55.2698 46.8585 52.4828 47.5839 48.8886C48.165 46.0088 48.3464 42.6095 48.0946 39.317C48.0636 38.9113 48.0321 38.534 48.0024 38.1819C47.832 36.1545 47.7381 35.0376 48.2524 34.2069C48.8085 33.3085 50.2217 32.4481 52.8046 31.0771C54.8882 29.9711 56.4374 27.6033 57.0546 24.5809C57.6487 21.672 57.3232 18.5211 56.1615 15.9363C56.1217 15.8456 56.0643 15.7637 55.9926 15.6953C55.921 15.627 55.8365 15.5735 55.7441 15.5379C55.6517 15.5023 55.5531 15.4854 55.4541 15.4882C55.3551 15.4909 55.2577 15.5132 55.1674 15.5538C55.077 15.5944 54.9956 15.6525 54.9279 15.7247C54.8601 15.7969 54.8073 15.8818 54.7726 15.9746C54.7378 16.0673 54.7217 16.166 54.7253 16.2649C54.7289 16.3639 54.752 16.4612 54.7934 16.5511C55.829 18.8556 56.1176 21.673 55.585 24.2806C55.0576 26.8628 53.7877 28.857 52.1012 29.7521C46.2821 32.8409 46.1092 33.5654 46.5076 38.307C46.5369 38.6558 46.5682 39.0294 46.599 39.431C47.2576 48.0435 44.9846 53.704 42.6414 56.1253C42.5214 56.2079 42.3885 56.2698 42.2481 56.3084C42.0253 56.3916 41.7793 56.3884 41.5588 56.2993C41.3382 56.2103 41.1589 56.042 41.0562 55.8274C40.9795 55.6498 40.9581 55.4532 40.9947 55.2633C40.9986 55.2429 41.0016 55.2223 41.0037 55.2016C41.2107 52.7678 41.2084 50.3207 40.9969 47.8873C40.5336 42.4215 39.1219 38.1825 36.8027 35.2881C36.4834 34.8968 36.0815 34.5809 35.6258 34.3631C35.17 34.1453 34.6718 34.0309 34.1667 34.0281C33.6616 34.0253 33.1622 34.1343 32.7041 34.3471C32.2461 34.56 31.8407 34.8715 31.5171 35.2593C29.1514 38.1389 27.7104 42.3785 27.2342 47.8606C27.0171 50.3028 27.0129 52.7593 27.2217 55.2021C27.224 55.2226 27.227 55.243 27.2307 55.2633C27.2674 55.4532 27.2459 55.6497 27.1692 55.8273C27.0666 56.0419 26.8873 56.2103 26.6667 56.2993C26.4461 56.3883 26.2002 56.3916 25.9774 56.3084C25.839 56.2692 25.7075 56.2086 25.5877 56.1289C23.241 53.7039 20.968 48.0441 21.6265 39.431C21.6574 39.0275 21.689 38.6523 21.7184 38.3021C22.1175 33.558 21.9445 32.8335 16.1236 29.7521C14.5604 28.9245 13.3656 27.2608 12.7597 25.0674C12.1632 22.8278 12.2144 20.4648 12.9075 18.2531C13.6377 15.9679 16.193 10.765 24.1252 11.817C26.7175 12.1609 29.964 14.0356 32.1127 15.2763C32.7589 15.6495 33.317 15.9718 33.7304 16.1774C35.7262 17.1699 38.7219 18.4228 41.6786 17.8459C41.7753 17.827 41.8673 17.7893 41.9494 17.7349C42.0315 17.6804 42.102 17.6103 42.157 17.5286C42.212 17.4469 42.2504 17.3552 42.27 17.2587C42.2895 17.1621 42.2899 17.0627 42.271 16.966C42.2521 16.8694 42.2144 16.7773 42.1599 16.6953C42.1055 16.6132 42.0354 16.5426 41.9537 16.4876C41.872 16.4326 41.7803 16.3942 41.6838 16.3747C41.5872 16.3551 41.4878 16.3548 41.3911 16.3736C39.8097 16.6823 38.0134 16.398 35.8187 15.4843C36.6626 15.0646 37.483 14.5994 38.2764 14.0908C39.5907 13.2758 40.7264 12.5719 42.9557 11.964C46.0424 11.1228 48.6932 11.2318 50.8352 12.288C51.0135 12.3747 51.2188 12.3873 51.4062 12.3231C51.5937 12.2589 51.7482 12.123 51.8359 11.9453C51.9235 11.7676 51.9373 11.5623 51.8741 11.3745C51.8109 11.1866 51.676 11.0314 51.4987 10.9428C49.0187 9.71952 46.0119 9.57615 42.5612 10.5169C40.1207 11.1821 38.841 11.9758 37.4862 12.8159C36.4343 13.5002 35.3247 14.0917 34.1702 14.5836C34.1262 14.6024 34.0832 14.6235 34.0415 14.6469C33.712 14.4675 33.3099 14.2355 32.8629 13.9774C30.612 12.6774 27.2102 10.713 24.323 10.33C18.0402 9.49665 13.239 12.2883 11.4781 17.797C9.79074 23.076 11.5597 29.034 15.4214 31.0784Z" fill="#0E1681"/>
<path d="M5.72755 42.2833C5.85182 42.2834 5.97416 42.2526 6.08358 42.1937C6.193 42.1348 6.28607 42.0496 6.35442 41.9458C6.79051 41.2799 7.41449 40.7584 8.14727 40.4475C8.88005 40.1366 9.68864 40.0503 10.4705 40.1994C10.6409 40.2316 10.8171 40.2037 10.9693 40.1206C11.1214 40.0375 11.2401 39.9043 11.305 39.7435C11.37 39.5828 11.3773 39.4045 11.3257 39.239C11.274 39.0735 11.1666 38.931 11.0218 38.8358C10.3558 38.3997 9.8342 37.7756 9.52327 37.0427C9.21234 36.3099 9.12604 35.5011 9.27529 34.7192C9.30754 34.5488 9.27973 34.3725 9.19662 34.2203C9.11351 34.0681 8.98022 33.9494 8.81944 33.8844C8.65866 33.8194 8.48033 33.8121 8.3148 33.8638C8.14927 33.9155 8.00676 34.023 7.91154 34.1679C7.4754 34.8338 6.85141 35.3552 6.11864 35.666C5.38587 35.9769 4.57731 36.0633 3.79542 35.9142C3.62507 35.882 3.44883 35.9098 3.29669 35.9929C3.14454 36.0761 3.02589 36.2093 2.96092 36.37C2.89594 36.5308 2.88866 36.709 2.9403 36.8745C2.99194 37.04 3.09932 37.1825 3.24417 37.2778C3.91008 37.7139 4.43152 38.3379 4.7424 39.0707C5.05328 39.8034 5.1396 40.612 4.99042 41.3939C4.96993 41.5023 4.97358 41.6138 5.00113 41.7206C5.02867 41.8274 5.07943 41.9268 5.14979 42.0117C5.22014 42.0967 5.30836 42.165 5.40816 42.212C5.50796 42.2589 5.61688 42.2833 5.72717 42.2833H5.72755ZM7.78855 36.4354C7.93363 37.2579 8.26388 38.0365 8.75429 38.7125C7.93212 38.8578 7.15372 39.188 6.47792 39.6783C6.33268 38.856 6.00239 38.0776 5.51205 37.4018C6.33431 37.2563 7.11275 36.9259 7.78855 36.4354Z" fill="#3EE09A"/>
<path d="M60.4906 12.4C59.0924 12.1229 57.8078 11.4369 56.7999 10.4289C55.792 9.421 55.106 8.13649 54.8289 6.73823C54.7948 6.56828 54.7029 6.41538 54.5689 6.30552C54.4348 6.19565 54.2668 6.13562 54.0935 6.13562C53.9202 6.13562 53.7522 6.19565 53.6181 6.30552C53.484 6.41538 53.3922 6.56828 53.3581 6.73823C53.081 8.13649 52.395 9.421 51.3871 10.4289C50.3791 11.4369 49.0946 12.1229 47.6964 12.4C47.5264 12.434 47.3735 12.5259 47.2636 12.66C47.1538 12.794 47.0938 12.962 47.0938 13.1354C47.0938 13.3087 47.1538 13.4767 47.2636 13.6107C47.3735 13.7448 47.5264 13.8367 47.6964 13.8707C49.0946 14.1478 50.3791 14.8338 51.3871 15.8418C52.395 16.8497 53.081 18.1342 53.3581 19.5325C53.3922 19.7024 53.484 19.8553 53.6181 19.9652C53.7522 20.0751 53.9202 20.1351 54.0935 20.1351C54.2668 20.1351 54.4348 20.0751 54.5689 19.9652C54.7029 19.8553 54.7948 19.7024 54.8289 19.5325C55.1059 18.1342 55.7919 16.8497 56.7999 15.8418C57.8078 14.8338 59.0923 14.1478 60.4906 13.8707C60.6606 13.8367 60.8135 13.7448 60.9233 13.6107C61.0332 13.4767 61.0932 13.3087 61.0932 13.1354C61.0932 12.962 61.0332 12.794 60.9233 12.66C60.8135 12.5259 60.6606 12.434 60.4906 12.4ZM54.0935 17.075C53.2488 15.3647 51.8643 13.9802 50.154 13.1355C51.8643 12.2908 53.2488 10.9064 54.0935 9.19611C54.9382 10.9065 56.3227 12.291 58.033 13.1357C56.3227 13.9804 54.9382 15.3648 54.0935 17.075Z" fill="#3EE09A"/>
<path d="M17.5223 48.0108C17.5222 47.8374 17.4622 47.6694 17.3523 47.5353C17.2423 47.4012 17.0894 47.3094 16.9194 47.2754C15.7549 47.0446 14.6852 46.4733 13.8458 45.6339C13.0064 44.7944 12.4351 43.7247 12.2044 42.5603C12.1703 42.3903 12.0784 42.2374 11.9444 42.1275C11.8103 42.0177 11.6423 41.9576 11.469 41.9576C11.2957 41.9576 11.1277 42.0177 10.9936 42.1275C10.8596 42.2374 10.7677 42.3903 10.7336 42.5603C10.5028 43.7246 9.93148 44.7943 9.09209 45.6336C8.2527 46.473 7.18302 47.0442 6.01863 47.275C5.84868 47.3091 5.69577 47.4009 5.58591 47.535C5.47605 47.6691 5.41602 47.8371 5.41602 48.0104C5.41602 48.1837 5.47605 48.3517 5.58591 48.4858C5.69577 48.6198 5.84868 48.7117 6.01863 48.7458C7.18307 48.9765 8.25279 49.5478 9.09219 50.3872C9.93159 51.2266 10.5029 52.2963 10.7336 53.4608C10.7677 53.6307 10.8596 53.7836 10.9936 53.8935C11.1277 54.0033 11.2957 54.0634 11.469 54.0634C11.6423 54.0634 11.8103 54.0033 11.9444 53.8935C12.0784 53.7836 12.1703 53.6307 12.2044 53.4608C12.4351 52.2963 13.0064 51.2266 13.8458 50.3872C14.6852 49.5478 15.7549 48.9765 16.9194 48.7458C17.0893 48.7118 17.2422 48.62 17.3521 48.486C17.462 48.352 17.5222 48.1841 17.5223 48.0108ZM11.469 51.1044C10.7692 49.7878 9.69184 48.7105 8.37525 48.0108C9.69175 47.3108 10.7691 46.2335 11.469 44.917C12.1689 46.2335 13.2463 47.3108 14.5628 48.0108C13.2462 48.7105 12.1688 49.7878 11.469 51.1044Z" fill="#3EE09A"/>
</svg>
