<svg width="64" height="64" viewBox="0 0 64 64" fill="none" xmlns="http://www.w3.org/2000/svg">
<path d="M39.4725 19.1269C40.8192 18.2918 41.9823 17.5706 44.2693 16.9473C46.1803 16.4263 47.9433 16.2733 49.5217 16.4674C47.2563 15.1129 44.2811 14.8564 40.8241 15.7989C38.5366 16.4223 37.3741 17.1434 36.0272 17.9785C35.172 18.5282 34.2851 19.0268 33.3711 19.4718C34.7217 20.0468 35.9261 20.392 37.0256 20.5178C37.8649 20.0971 38.6816 19.6328 39.4725 19.1269Z" fill="#EDEEFD"/>
<path d="M42.2138 53.6992C41.7422 48.135 40.3072 43.8218 37.9489 40.8792C37.6304 40.4836 37.2267 40.165 36.7678 39.9473C36.3089 39.7295 35.8068 39.6182 35.2989 39.6217C35.0272 39.6218 34.7564 39.6539 34.4922 39.7172C34.4959 39.7218 34.4999 39.7262 34.5038 39.7308C36.8621 42.6734 38.2969 46.9867 38.7686 52.5508C38.9842 55.03 38.9866 57.5231 38.7758 60.0028C38.7739 60.0218 38.7712 60.0403 38.7676 60.0595C38.7307 60.2401 38.7433 60.4273 38.8042 60.6013C38.865 60.7753 38.9718 60.9295 39.1132 61.0478C39.2546 61.166 39.4254 61.2438 39.6074 61.2728C39.7894 61.3019 39.9759 61.2812 40.1471 61.2129C40.3011 61.1717 40.4464 61.1028 40.5758 61.0096C41.2868 60.2596 41.8886 59.4131 42.3633 58.495C42.3968 56.8949 42.3469 55.2941 42.2138 53.6992Z" fill="#EDEEFD"/>
<path d="M24.8593 60.0033C24.858 59.9908 24.8537 59.9477 24.8468 59.879C22.5843 55.8085 22.0745 49.835 22.44 45.054C22.4715 44.6415 22.5037 44.2588 22.5338 43.9012C22.7272 41.6012 22.844 40.2137 22.0662 38.9575C21.3177 37.7484 19.7921 36.7975 16.8631 35.247C15.2483 34.3923 14.0155 32.677 13.3913 30.4175C12.7784 28.1169 12.831 25.6895 13.5428 23.4175C14.2553 21.1897 15.5647 19.3959 17.3303 18.23C19.3928 16.8689 21.9988 16.3857 25.0772 16.7939C25.1857 16.8084 25.2958 16.8263 25.4065 16.8458C24.1221 16.2667 22.8121 15.8021 21.6315 15.6458C18.5531 15.2374 15.9468 15.7208 13.8846 17.0819C12.1188 18.2474 10.8096 20.0412 10.0971 22.2694C9.38511 24.5414 9.33253 26.9688 9.94547 29.2694C10.5696 31.5289 11.8026 33.2444 13.4172 34.0989C16.3462 35.6489 17.8718 36.6003 18.6203 37.8094C19.3981 39.0658 19.2813 40.4537 19.0881 42.7529C19.058 43.1107 19.0256 43.4937 18.9942 43.9059C18.5521 49.6874 19.3878 57.2169 23.0592 61.0104C23.1888 61.1029 23.334 61.1714 23.4878 61.2125C23.659 61.2809 23.8455 61.3016 24.0275 61.2725C24.2095 61.2435 24.3803 61.1657 24.5217 61.0475C24.6631 60.9293 24.7699 60.775 24.8308 60.6011C24.8917 60.4271 24.9043 60.2399 24.8675 60.0593C24.8641 60.0409 24.8615 60.0222 24.8593 60.0033Z" fill="#EDEEFD"/>
<path d="M51.0231 35.5085C53.0981 34.4068 54.6106 32.1585 55.2815 29.1787C55.9145 26.3662 55.6856 23.2576 54.6536 20.6514C53.6509 18.1191 51.9631 16.1964 49.7728 15.0912C47.2395 13.8129 44.1581 13.6545 40.6146 14.6205C38.1344 15.2965 36.8334 16.1032 35.4561 16.9572C34.5123 17.5425 33.5363 18.1477 32.0811 18.756C32.0343 18.7755 31.9885 18.7978 31.9443 18.8227C31.6083 18.64 31.1966 18.4022 30.7403 18.1386C28.4518 16.8171 24.9934 14.8199 22.0593 14.4307C15.6766 13.5836 10.7988 16.4199 9.01002 22.0161C7.29564 27.3796 9.09189 33.4324 13.0143 35.5089C15.6431 36.9 17.0815 37.775 17.6499 38.6922C18.1749 39.5405 18.0793 40.6773 17.9058 42.7411C17.8868 42.9661 17.867 43.2022 17.8471 43.4481L16.3514 42.3481C14.4714 40.9595 12.1946 40.2126 9.85739 40.2177C9.65848 40.2177 9.46771 40.2967 9.32706 40.4374C9.18641 40.578 9.10739 40.7688 9.10739 40.9677C9.10739 41.1666 9.18641 41.3574 9.32706 41.4981C9.46771 41.6387 9.65848 41.7177 9.85739 41.7177C11.8747 41.7135 13.8398 42.3583 15.4624 43.557L17.7349 45.2278C17.5793 49.155 17.8359 57.4785 22.2609 62.0506C22.4754 62.2725 22.7995 62.4558 23.252 62.6117C23.5174 62.7032 23.7963 62.7499 24.077 62.75C24.4375 62.7551 24.7945 62.6803 25.1226 62.531C25.4507 62.3817 25.7417 62.1615 25.9745 61.8863C26.2074 61.6112 26.3764 61.2878 26.4694 60.9395C26.5624 60.5913 26.5771 60.2267 26.5124 59.8721C26.4499 59.226 25.3624 47.0455 30.548 40.7335C30.7342 40.513 30.9666 40.3361 31.2287 40.2152C31.4907 40.0943 31.7761 40.0324 32.0647 40.0338C32.3533 40.0353 32.6381 40.1 32.8989 40.2235C33.1598 40.347 33.3903 40.5262 33.5744 40.7485C38.6574 47.0912 37.5874 59.225 37.5249 59.8723C37.4401 60.3523 37.4983 60.8466 37.6923 61.2937C38.1963 62.4562 39.5548 63.0347 40.7849 62.6116C41.2373 62.4558 41.5614 62.2723 41.7758 62.0507C46.2089 57.4702 46.4584 49.1251 46.3008 45.2067L48.1698 43.7388C49.8383 42.4325 51.8955 41.7213 54.0145 41.7181C54.2134 41.7181 54.4042 41.6391 54.5448 41.4984C54.6855 41.3578 54.7645 41.167 54.7645 40.9681C54.7645 40.7692 54.6855 40.5784 54.5448 40.4378C54.4042 40.2971 54.2134 40.2181 54.0145 40.2181C51.5595 40.2218 49.1762 41.0458 47.2433 42.5592L46.1853 43.3901C46.1671 43.167 46.1491 42.9526 46.1319 42.7463C45.9584 40.6816 45.8629 39.5442 46.3879 38.6964C46.9555 37.78 48.3941 36.9038 51.0231 35.5085ZM44.6374 42.872C44.6671 43.2265 44.6991 43.6066 44.7304 44.015C45.1698 49.7616 44.3411 57.2432 40.701 61.0046C40.5779 61.0898 40.4412 61.1536 40.2968 61.1932C40.0671 61.279 39.8136 61.2757 39.5862 61.1838C39.3589 61.092 39.1742 60.9183 39.0686 60.697C38.9896 60.5141 38.9675 60.3116 39.0053 60.116C39.0091 60.0956 39.0121 60.075 39.0143 60.0543C39.2247 57.5798 39.2223 55.0917 39.0073 52.6176C38.5361 47.0612 37.1019 42.7523 34.7448 39.8105C34.4211 39.414 34.0139 39.094 33.5521 38.8733C33.0903 38.6526 32.5855 38.5367 32.0737 38.5339C31.5619 38.5311 31.0559 38.6415 30.5917 38.8571C30.1276 39.0727 29.7168 39.3883 29.3889 39.7812C23.6936 46.7137 24.966 59.5132 25.023 60.0547C25.0251 60.0753 25.0281 60.0957 25.032 60.116C25.0697 60.3116 25.0476 60.5141 24.9686 60.697C24.863 60.9182 24.6783 61.0919 24.451 61.1838C24.2237 61.2756 23.9702 61.279 23.7405 61.1932C23.5977 61.1532 23.4622 61.0905 23.3391 61.0076C19.6959 57.2432 18.8674 49.7616 19.3068 44.015C19.3381 43.6046 19.3701 43.223 19.4001 42.8668C19.8054 38.0495 19.6298 37.3136 13.7168 34.1832C12.1236 33.3398 10.9064 31.6448 10.2893 29.4106C9.68173 27.1305 9.73374 24.7248 10.4393 22.4731C11.1833 20.1454 13.7859 14.8467 21.8624 15.9179C24.5014 16.2679 27.8046 18.1755 29.9905 19.4379C30.6475 19.8172 31.2155 20.145 31.635 20.3539C35.8699 22.4601 38.2725 22.3304 39.71 22.0497C39.8067 22.0308 39.8987 21.9931 39.9808 21.9387C40.0629 21.8842 40.1334 21.8142 40.1884 21.7325C40.2434 21.6508 40.2818 21.559 40.3014 21.4625C40.3209 21.366 40.3213 21.2665 40.3024 21.1699C40.2835 21.0732 40.2458 20.9812 40.1913 20.8991C40.1369 20.817 40.0668 20.7464 39.9851 20.6914C39.9034 20.6364 39.8117 20.5981 39.7152 20.5785C39.6186 20.5589 39.5192 20.5586 39.4225 20.5775C37.8048 20.8931 35.9678 20.6025 33.7201 19.6622C34.5875 19.2324 35.4304 18.755 36.2451 18.2322C37.5826 17.4029 38.7379 16.6866 41.0076 16.0679C46.8676 14.4706 51.3326 16.3429 53.2576 21.2039C54.1814 23.5367 54.3853 26.3235 53.8168 28.8496C53.252 31.3594 51.977 33.3036 50.3185 34.1838C44.4088 37.3211 44.233 38.0568 44.6374 42.872Z" fill="#0E1681"/>
<path d="M31.6191 7.4485C31.8181 7.4485 32.0088 7.36948 32.1495 7.22883C32.2901 7.08818 32.3691 6.89741 32.3691 6.6985V2C32.3691 1.80109 32.2901 1.61032 32.1495 1.46967C32.0088 1.32902 31.8181 1.25 31.6191 1.25C31.4202 1.25 31.2295 1.32902 31.0888 1.46967C30.9482 1.61032 30.8691 1.80109 30.8691 2V6.6985C30.8691 6.89741 30.9482 7.08818 31.0888 7.22883C31.2295 7.36948 31.4202 7.4485 31.6191 7.4485Z" fill="#3EE09A"/>
<path d="M45.4038 9.15321C45.5187 9.15335 45.6322 9.12703 45.7353 9.07631C45.8384 9.02559 45.9285 8.95182 45.9986 8.86071L50.2765 3.30621C50.3964 3.14851 50.4491 2.94976 50.423 2.75336C50.3969 2.55696 50.2941 2.37887 50.1371 2.25798C49.9802 2.13708 49.7817 2.08321 49.5852 2.10813C49.3886 2.13305 49.2099 2.23472 49.0881 2.39096L44.8102 7.94546C44.7247 8.05642 44.672 8.18909 44.658 8.32847C44.6441 8.46784 44.6694 8.60834 44.7312 8.73404C44.793 8.85975 44.8887 8.96564 45.0076 9.03972C45.1265 9.11381 45.2637 9.15312 45.4038 9.15321Z" fill="#3EE09A"/>
<path d="M18.5968 9.15321C18.7369 9.15312 18.8741 9.11381 18.993 9.03972C19.1119 8.96564 19.2077 8.85975 19.2694 8.73404C19.3312 8.60834 19.3566 8.46784 19.3426 8.32847C19.3287 8.18909 19.2759 8.05642 19.1905 7.94546L14.9127 2.39096C14.7909 2.23472 14.6122 2.13305 14.4156 2.10813C14.2191 2.08321 14.0206 2.13708 13.8637 2.25798C13.7067 2.37887 13.6039 2.55696 13.5778 2.75336C13.5517 2.94976 13.6044 3.14851 13.7243 3.30621L18.0022 8.86071C18.0722 8.95183 18.1623 9.0256 18.2654 9.07632C18.3685 9.12705 18.4819 9.15335 18.5968 9.15321Z" fill="#3EE09A"/>
<path d="M27.9323 24.2698L28.8372 25.2682C29.3176 25.7985 29.9478 26.1703 30.6443 26.3344C31.3407 26.4986 32.0706 26.4473 32.7373 26.1873C33.404 25.9274 33.976 25.4711 34.3775 24.8789C34.7791 24.2866 34.9913 23.5864 34.986 22.8708L34.9699 20.6607C34.9685 20.4628 34.8888 20.2734 34.7483 20.1339C34.6078 19.9945 34.4179 19.9162 34.2199 19.9162H34.2143C34.1158 19.9169 34.0184 19.937 33.9277 19.9754C33.837 20.0138 33.7547 20.0696 33.6856 20.1398C33.6164 20.2099 33.5618 20.293 33.5248 20.3843C33.4877 20.4755 33.4691 20.5732 33.4698 20.6717L33.4859 22.8818C33.489 23.2935 33.3669 23.6964 33.1359 24.0371C32.9049 24.3779 32.5758 24.6404 32.1922 24.7899C31.8087 24.9395 31.3887 24.9689 30.988 24.8745C30.5873 24.78 30.2248 24.5661 29.9484 24.261L29.0435 23.2626C28.7865 22.9789 28.4716 22.7537 28.12 22.6021C27.7684 22.4506 27.3884 22.3763 27.0057 22.3842C26.623 22.3922 26.2464 22.4822 25.9014 22.6481C25.5564 22.8141 25.2511 23.0522 25.006 23.3463C24.9294 23.4382 24.8344 23.513 24.727 23.5658C24.6197 23.6186 24.5025 23.6483 24.3829 23.653L23.4717 23.688C23.3586 23.6923 23.2458 23.6741 23.1399 23.6345C23.0339 23.5949 22.9369 23.5346 22.8544 23.4572C22.7719 23.3797 22.7057 23.2866 22.6595 23.1834C22.6133 23.0801 22.5881 22.9687 22.5853 22.8556L22.5439 21.1605C22.5358 20.8282 22.4575 20.5014 22.314 20.2016C22.1705 19.9018 21.9652 19.6358 21.7115 19.4211C21.4578 19.2063 21.1615 19.0478 20.8421 18.9558C20.5227 18.8638 20.1875 18.8405 19.8584 18.8875C19.7138 18.9081 19.5664 18.8913 19.4302 18.8387C19.2939 18.7861 19.1735 18.6994 19.0803 18.587C18.9871 18.4746 18.9243 18.3401 18.8979 18.1964C18.8715 18.0528 18.8824 17.9048 18.9295 17.7666L19.7727 15.2937C19.8045 15.2005 19.8176 15.1019 19.8113 15.0036C19.805 14.9053 19.7794 14.8092 19.7359 14.7209C19.6925 14.6325 19.632 14.5535 19.5581 14.4884C19.4841 14.4234 19.3981 14.3736 19.3049 14.3418C19.2116 14.31 19.1131 14.2969 19.0148 14.3032C18.9165 14.3095 18.8204 14.3351 18.732 14.3785C18.6436 14.422 18.5646 14.4824 18.4996 14.5564C18.4345 14.6303 18.3847 14.7164 18.3529 14.8096L17.5098 17.2825C17.3798 17.6635 17.3498 18.0715 17.4225 18.4675C17.4953 18.8635 17.6684 19.2342 17.9253 19.5442C18.1822 19.8542 18.5143 20.0931 18.8899 20.2381C19.2655 20.3831 19.672 20.4293 20.0705 20.3723C20.19 20.3552 20.3117 20.3635 20.4277 20.3969C20.5437 20.4302 20.6513 20.4877 20.7435 20.5657C20.8356 20.6437 20.9101 20.7403 20.9622 20.8491C21.0143 20.958 21.0427 21.0767 21.0455 21.1973L21.0869 22.8925C21.0945 23.2042 21.164 23.5114 21.2913 23.796C21.4186 24.0807 21.6011 24.3373 21.8284 24.5508C22.0557 24.7643 22.3232 24.9306 22.6152 25.0399C22.9073 25.1492 23.2182 25.1993 23.5298 25.1875L24.4412 25.1523C24.7707 25.1394 25.0938 25.0575 25.3897 24.912C25.6856 24.7664 25.9476 24.5604 26.1589 24.3072C26.2665 24.178 26.4006 24.0734 26.5521 24.0004C26.7036 23.9275 26.8689 23.8879 27.0371 23.8843C27.2052 23.8807 27.3721 23.9133 27.5265 23.9798C27.681 24.0463 27.8193 24.1452 27.9323 24.2697V24.2698Z" fill="#3EE09A"/>
</svg>
