<svg width="40" height="40" viewBox="0 0 40 40" fill="none" xmlns="http://www.w3.org/2000/svg">
<path d="M10.6367 9.94663C13.2929 7.8184 16.5963 6.6612 20 6.66663C23.5417 6.66663 26.7967 7.89329 29.3633 9.94663L31.785 7.52496L34.1417 9.88163L31.72 12.3033C33.4828 14.5102 34.5868 17.17 34.9047 19.9766C35.2226 22.7832 34.7416 25.6225 33.5171 28.1679C32.2926 30.7132 30.3743 32.861 27.983 34.3643C25.5917 35.8675 22.8246 36.665 20 36.665C17.1755 36.665 14.4083 35.8675 12.017 34.3643C9.62568 32.861 7.70739 30.7132 6.48288 28.1679C5.25837 25.6225 4.7774 22.7832 5.09533 19.9766C5.41326 17.17 6.51717 14.5102 8.28001 12.3033L5.85834 9.88329L8.21501 7.52663L10.6367 9.94829V9.94663ZM20 33.3333C21.5321 33.3333 23.0492 33.0315 24.4646 32.4452C25.8801 31.8589 27.1662 30.9996 28.2496 29.9162C29.3329 28.8329 30.1923 27.5467 30.7786 26.1313C31.3649 24.7158 31.6667 23.1987 31.6667 21.6666C31.6667 20.1345 31.3649 18.6175 30.7786 17.202C30.1923 15.7865 29.3329 14.5004 28.2496 13.417C27.1662 12.3337 25.8801 11.4743 24.4646 10.888C23.0492 10.3017 21.5321 9.99996 20 9.99996C16.9058 9.99996 13.9384 11.2291 11.7504 13.417C9.5625 15.605 8.33334 18.5724 8.33334 21.6666C8.33334 24.7608 9.5625 27.7283 11.7504 29.9162C13.9384 32.1041 16.9058 33.3333 20 33.3333ZM21.6667 20H26.6667L18.3333 30.8333V23.3333H13.3333L21.6667 12.4916V20ZM13.3333 1.66663H26.6667V4.99996H13.3333V1.66663Z" fill="#C8F9E4"/>
</svg>
